<mxfile host="app.diagrams.net" modified="2023-11-07T10:32:52.283Z" agent="Mozilla/5.0 (X11; Ubuntu; Linux x86_64; rv:109.0) Gecko/20100101 Firefox/119.0" etag="o1vFY2b2FrZoNP7dW3E4" version="22.0.8" type="github">
  <diagram id="R2lEEEUBdFMjLlhIrx00" name="Page-1">
    <mxGraphModel dx="4310" dy="2438" grid="1" gridSize="10" guides="1" tooltips="1" connect="1" arrows="1" fold="1" page="1" pageScale="1" pageWidth="1920" pageHeight="1200" math="0" shadow="0" extFonts="Permanent Marker^https://fonts.googleapis.com/css?family=Permanent+Marker">
      <root>
        <mxCell id="0" />
        <mxCell id="1" parent="0" />
        <mxCell id="cCLrs_CAnp8vthAAdHYO-9" value="&lt;div&gt;Scalability&lt;/div&gt;" style="swimlane;whiteSpace=wrap;html=1;fillColor=#e1d5e7;strokeColor=#9673a6;" parent="1" vertex="1">
          <mxGeometry x="-810" y="-420" width="190" height="250" as="geometry" />
        </mxCell>
        <mxCell id="cCLrs_CAnp8vthAAdHYO-12" value="&lt;div&gt;Horizontal Duplication&lt;/div&gt;" style="swimlane;whiteSpace=wrap;html=1;startSize=40;fillColor=#e1d5e7;strokeColor=#9673a6;" parent="cCLrs_CAnp8vthAAdHYO-9" vertex="1">
          <mxGeometry x="20" y="42.5" width="140" height="177.5" as="geometry" />
        </mxCell>
        <mxCell id="cCLrs_CAnp8vthAAdHYO-14" value="Reactive Autoscaling" style="rounded=1;whiteSpace=wrap;html=1;fillColor=#e1d5e7;strokeColor=#9673a6;" parent="cCLrs_CAnp8vthAAdHYO-12" vertex="1">
          <mxGeometry x="10" y="57.5" width="120" height="40" as="geometry" />
        </mxCell>
        <mxCell id="cCLrs_CAnp8vthAAdHYO-15" value="Proactive Autoscaling" style="rounded=1;whiteSpace=wrap;html=1;fillColor=#e1d5e7;strokeColor=#9673a6;" parent="cCLrs_CAnp8vthAAdHYO-12" vertex="1">
          <mxGeometry x="10" y="117.5" width="120" height="40" as="geometry" />
        </mxCell>
        <mxCell id="cCLrs_CAnp8vthAAdHYO-21" value="Performance" style="swimlane;whiteSpace=wrap;html=1;fillColor=#d5e8d4;strokeColor=#82b366;strokeWidth=2;" parent="1" vertex="1">
          <mxGeometry x="-140" y="-80" width="520" height="530" as="geometry" />
        </mxCell>
        <mxCell id="cCLrs_CAnp8vthAAdHYO-26" value="Resource Management and Allocation" style="swimlane;whiteSpace=wrap;html=1;startSize=35;fillColor=#d5e8d4;strokeColor=#82b366;rounded=1;" parent="cCLrs_CAnp8vthAAdHYO-21" vertex="1">
          <mxGeometry x="40" y="70" width="200" height="200" as="geometry" />
        </mxCell>
        <mxCell id="cCLrs_CAnp8vthAAdHYO-30" value="Performance Model" style="rounded=1;whiteSpace=wrap;html=1;fillColor=#d5e8d4;strokeColor=#82b366;" parent="cCLrs_CAnp8vthAAdHYO-26" vertex="1">
          <mxGeometry x="30" y="45" width="120" height="40" as="geometry" />
        </mxCell>
        <mxCell id="cCLrs_CAnp8vthAAdHYO-31" value="Orchestration Engine" style="rounded=1;whiteSpace=wrap;html=1;fillColor=#d5e8d4;strokeColor=#82b366;" parent="cCLrs_CAnp8vthAAdHYO-26" vertex="1">
          <mxGeometry x="30" y="95" width="120" height="40" as="geometry" />
        </mxCell>
        <mxCell id="cCLrs_CAnp8vthAAdHYO-32" value="Evolutionary Algorithms" style="rounded=1;whiteSpace=wrap;html=1;fillColor=#d5e8d4;strokeColor=#82b366;" parent="cCLrs_CAnp8vthAAdHYO-26" vertex="1">
          <mxGeometry x="30" y="145" width="120" height="40" as="geometry" />
        </mxCell>
        <mxCell id="cCLrs_CAnp8vthAAdHYO-27" value="Load Balancing" style="swimlane;whiteSpace=wrap;html=1;startSize=35;fillColor=#d5e8d4;strokeColor=#82b366;rounded=1;" parent="cCLrs_CAnp8vthAAdHYO-21" vertex="1">
          <mxGeometry x="250" y="70" width="200" height="200" as="geometry" />
        </mxCell>
        <mxCell id="cCLrs_CAnp8vthAAdHYO-33" value="Centralized Load Balancing" style="rounded=1;whiteSpace=wrap;html=1;fillColor=#d5e8d4;strokeColor=#82b366;" parent="cCLrs_CAnp8vthAAdHYO-27" vertex="1">
          <mxGeometry x="30" y="65" width="120" height="40" as="geometry" />
        </mxCell>
        <mxCell id="cCLrs_CAnp8vthAAdHYO-34" value="Distributed Load Balancing" style="rounded=1;whiteSpace=wrap;html=1;fillColor=#d5e8d4;strokeColor=#82b366;" parent="cCLrs_CAnp8vthAAdHYO-27" vertex="1">
          <mxGeometry x="30" y="125" width="120" height="40" as="geometry" />
        </mxCell>
        <mxCell id="cCLrs_CAnp8vthAAdHYO-129" style="edgeStyle=orthogonalEdgeStyle;rounded=0;orthogonalLoop=1;jettySize=auto;html=1;exitX=0.5;exitY=0;exitDx=0;exitDy=0;entryX=0;entryY=0.5;entryDx=0;entryDy=0;strokeWidth=5;" parent="cCLrs_CAnp8vthAAdHYO-21" source="cCLrs_CAnp8vthAAdHYO-28" target="cCLrs_CAnp8vthAAdHYO-26" edge="1">
          <mxGeometry relative="1" as="geometry">
            <Array as="points">
              <mxPoint x="140" y="280" />
              <mxPoint x="10" y="280" />
              <mxPoint x="10" y="170" />
            </Array>
          </mxGeometry>
        </mxCell>
        <mxCell id="cCLrs_CAnp8vthAAdHYO-28" value="Containerization" style="swimlane;whiteSpace=wrap;html=1;startSize=35;fillColor=#d5e8d4;strokeColor=#82b366;rounded=1;" parent="cCLrs_CAnp8vthAAdHYO-21" vertex="1">
          <mxGeometry x="40" y="295" width="200" height="200" as="geometry" />
        </mxCell>
        <mxCell id="cCLrs_CAnp8vthAAdHYO-103" value="Containers" style="rounded=1;whiteSpace=wrap;html=1;fillColor=#d5e8d4;strokeColor=#82b366;" parent="cCLrs_CAnp8vthAAdHYO-28" vertex="1">
          <mxGeometry x="40" y="65" width="120" height="40" as="geometry" />
        </mxCell>
        <mxCell id="cCLrs_CAnp8vthAAdHYO-104" value="VM" style="rounded=1;whiteSpace=wrap;html=1;fillColor=#d5e8d4;strokeColor=#82b366;" parent="cCLrs_CAnp8vthAAdHYO-28" vertex="1">
          <mxGeometry x="40" y="115" width="120" height="40" as="geometry" />
        </mxCell>
        <mxCell id="cCLrs_CAnp8vthAAdHYO-138" style="edgeStyle=orthogonalEdgeStyle;rounded=0;orthogonalLoop=1;jettySize=auto;html=1;exitX=1;exitY=0.5;exitDx=0;exitDy=0;strokeWidth=5;" parent="cCLrs_CAnp8vthAAdHYO-21" source="cCLrs_CAnp8vthAAdHYO-29" edge="1">
          <mxGeometry relative="1" as="geometry">
            <Array as="points">
              <mxPoint x="515" y="395" />
              <mxPoint x="515" y="-70" />
              <mxPoint x="130" y="-70" />
              <mxPoint x="130" y="70" />
            </Array>
            <mxPoint x="130" y="70" as="targetPoint" />
          </mxGeometry>
        </mxCell>
        <mxCell id="ivcwR1BW1cnBZH2qPvlK-3" style="edgeStyle=orthogonalEdgeStyle;rounded=0;orthogonalLoop=1;jettySize=auto;html=1;exitX=0.5;exitY=0;exitDx=0;exitDy=0;entryX=1;entryY=0.5;entryDx=0;entryDy=0;strokeWidth=5;" parent="cCLrs_CAnp8vthAAdHYO-21" source="cCLrs_CAnp8vthAAdHYO-29" target="cCLrs_CAnp8vthAAdHYO-27" edge="1">
          <mxGeometry relative="1" as="geometry">
            <Array as="points">
              <mxPoint x="355" y="280" />
              <mxPoint x="480" y="280" />
              <mxPoint x="480" y="170" />
            </Array>
          </mxGeometry>
        </mxCell>
        <mxCell id="cCLrs_CAnp8vthAAdHYO-29" value="Profiling" style="swimlane;whiteSpace=wrap;html=1;startSize=35;fillColor=#d5e8d4;strokeColor=#82b366;rounded=1;" parent="cCLrs_CAnp8vthAAdHYO-21" vertex="1">
          <mxGeometry x="260" y="295" width="190" height="200" as="geometry" />
        </mxCell>
        <mxCell id="cCLrs_CAnp8vthAAdHYO-105" value="Profiling Methods" style="rounded=1;whiteSpace=wrap;html=1;fillColor=#d5e8d4;strokeColor=#82b366;" parent="cCLrs_CAnp8vthAAdHYO-29" vertex="1">
          <mxGeometry x="35" y="65" width="120" height="40" as="geometry" />
        </mxCell>
        <mxCell id="cCLrs_CAnp8vthAAdHYO-22" value="Availability" style="swimlane;whiteSpace=wrap;html=1;fillColor=#dae8fc;strokeColor=#6c8ebf;" parent="1" vertex="1">
          <mxGeometry x="-1680" y="610" width="490" height="510" as="geometry" />
        </mxCell>
        <mxCell id="cCLrs_CAnp8vthAAdHYO-43" value="Fault Monitor" style="swimlane;whiteSpace=wrap;html=1;startSize=35;fillColor=#dae8fc;strokeColor=#6c8ebf;" parent="cCLrs_CAnp8vthAAdHYO-22" vertex="1">
          <mxGeometry x="20" y="70" width="200" height="200" as="geometry" />
        </mxCell>
        <mxCell id="cCLrs_CAnp8vthAAdHYO-44" value="Centralized Monitoring" style="rounded=1;whiteSpace=wrap;html=1;fillColor=#dae8fc;strokeColor=#6c8ebf;" parent="cCLrs_CAnp8vthAAdHYO-43" vertex="1">
          <mxGeometry x="30" y="45" width="120" height="40" as="geometry" />
        </mxCell>
        <mxCell id="cCLrs_CAnp8vthAAdHYO-45" value="Symmetric Monitoring" style="rounded=1;whiteSpace=wrap;html=1;fillColor=#dae8fc;strokeColor=#6c8ebf;" parent="cCLrs_CAnp8vthAAdHYO-43" vertex="1">
          <mxGeometry x="30" y="95" width="120" height="40" as="geometry" />
        </mxCell>
        <mxCell id="cCLrs_CAnp8vthAAdHYO-46" value="Arbitral Monitoring" style="rounded=1;whiteSpace=wrap;html=1;fillColor=#dae8fc;strokeColor=#6c8ebf;" parent="cCLrs_CAnp8vthAAdHYO-43" vertex="1">
          <mxGeometry x="30" y="145" width="120" height="40" as="geometry" />
        </mxCell>
        <mxCell id="cCLrs_CAnp8vthAAdHYO-140" style="edgeStyle=orthogonalEdgeStyle;rounded=0;orthogonalLoop=1;jettySize=auto;html=1;entryX=1;entryY=0.5;entryDx=0;entryDy=0;strokeWidth=2;" parent="cCLrs_CAnp8vthAAdHYO-22" source="cCLrs_CAnp8vthAAdHYO-47" target="cCLrs_CAnp8vthAAdHYO-43" edge="1">
          <mxGeometry relative="1" as="geometry" />
        </mxCell>
        <mxCell id="cCLrs_CAnp8vthAAdHYO-47" value="Service Registry" style="swimlane;whiteSpace=wrap;html=1;startSize=35;fillColor=#dae8fc;strokeColor=#6c8ebf;" parent="cCLrs_CAnp8vthAAdHYO-22" vertex="1">
          <mxGeometry x="260" y="70" width="200" height="200" as="geometry" />
        </mxCell>
        <mxCell id="cCLrs_CAnp8vthAAdHYO-48" value="Self-registry" style="rounded=1;whiteSpace=wrap;html=1;fillColor=#dae8fc;strokeColor=#6c8ebf;" parent="cCLrs_CAnp8vthAAdHYO-47" vertex="1">
          <mxGeometry x="30" y="45" width="120" height="40" as="geometry" />
        </mxCell>
        <mxCell id="cCLrs_CAnp8vthAAdHYO-49" value="Third-party registry" style="rounded=1;whiteSpace=wrap;html=1;fillColor=#dae8fc;strokeColor=#6c8ebf;" parent="cCLrs_CAnp8vthAAdHYO-47" vertex="1">
          <mxGeometry x="30" y="95" width="120" height="40" as="geometry" />
        </mxCell>
        <mxCell id="cCLrs_CAnp8vthAAdHYO-50" value="Manual registry" style="rounded=1;whiteSpace=wrap;html=1;fillColor=#dae8fc;strokeColor=#6c8ebf;" parent="cCLrs_CAnp8vthAAdHYO-47" vertex="1">
          <mxGeometry x="30" y="145" width="120" height="40" as="geometry" />
        </mxCell>
        <mxCell id="cCLrs_CAnp8vthAAdHYO-51" value="Circuit Breaker" style="swimlane;whiteSpace=wrap;html=1;startSize=35;fillColor=#dae8fc;strokeColor=#6c8ebf;" parent="cCLrs_CAnp8vthAAdHYO-22" vertex="1">
          <mxGeometry x="20" y="290" width="200" height="200" as="geometry" />
        </mxCell>
        <mxCell id="cCLrs_CAnp8vthAAdHYO-52" value="Client Side" style="rounded=1;whiteSpace=wrap;html=1;fillColor=#dae8fc;strokeColor=#6c8ebf;" parent="cCLrs_CAnp8vthAAdHYO-51" vertex="1">
          <mxGeometry x="30" y="45" width="120" height="40" as="geometry" />
        </mxCell>
        <mxCell id="cCLrs_CAnp8vthAAdHYO-53" value="Service Side" style="rounded=1;whiteSpace=wrap;html=1;fillColor=#dae8fc;strokeColor=#6c8ebf;" parent="cCLrs_CAnp8vthAAdHYO-51" vertex="1">
          <mxGeometry x="30" y="95" width="120" height="40" as="geometry" />
        </mxCell>
        <mxCell id="cCLrs_CAnp8vthAAdHYO-54" value="Proxy" style="rounded=1;whiteSpace=wrap;html=1;fillColor=#dae8fc;strokeColor=#6c8ebf;" parent="cCLrs_CAnp8vthAAdHYO-51" vertex="1">
          <mxGeometry x="30" y="145" width="120" height="40" as="geometry" />
        </mxCell>
        <mxCell id="cCLrs_CAnp8vthAAdHYO-55" value="Inconsistency Handler" style="swimlane;whiteSpace=wrap;html=1;startSize=35;fillColor=#dae8fc;strokeColor=#6c8ebf;" parent="cCLrs_CAnp8vthAAdHYO-22" vertex="1">
          <mxGeometry x="260" y="290" width="200" height="200" as="geometry" />
        </mxCell>
        <mxCell id="cCLrs_CAnp8vthAAdHYO-58" value="Eventual Consistency" style="rounded=1;whiteSpace=wrap;html=1;fillColor=#dae8fc;strokeColor=#6c8ebf;" parent="cCLrs_CAnp8vthAAdHYO-55" vertex="1">
          <mxGeometry x="40" y="85" width="120" height="40" as="geometry" />
        </mxCell>
        <mxCell id="cCLrs_CAnp8vthAAdHYO-122" style="edgeStyle=orthogonalEdgeStyle;rounded=0;orthogonalLoop=1;jettySize=auto;html=1;entryX=0;entryY=0.5;entryDx=0;entryDy=0;strokeColor=#9673a6;strokeWidth=5;fillColor=#e1d5e7;" parent="1" source="cCLrs_CAnp8vthAAdHYO-23" target="cCLrs_CAnp8vthAAdHYO-15" edge="1">
          <mxGeometry relative="1" as="geometry" />
        </mxCell>
        <mxCell id="cCLrs_CAnp8vthAAdHYO-124" style="edgeStyle=orthogonalEdgeStyle;rounded=0;orthogonalLoop=1;jettySize=auto;html=1;exitX=0.5;exitY=0;exitDx=0;exitDy=0;entryX=0;entryY=0.5;entryDx=0;entryDy=0;strokeColor=#9673a6;strokeWidth=5;fillColor=#e1d5e7;" parent="1" source="cCLrs_CAnp8vthAAdHYO-23" target="cCLrs_CAnp8vthAAdHYO-14" edge="1">
          <mxGeometry relative="1" as="geometry" />
        </mxCell>
        <mxCell id="cCLrs_CAnp8vthAAdHYO-131" style="edgeStyle=orthogonalEdgeStyle;rounded=0;orthogonalLoop=1;jettySize=auto;html=1;strokeWidth=5;strokeColor=#82b366;fillColor=#d5e8d4;entryX=0;entryY=0.25;entryDx=0;entryDy=0;exitX=1;exitY=0.75;exitDx=0;exitDy=0;" parent="1" source="cCLrs_CAnp8vthAAdHYO-23" target="cCLrs_CAnp8vthAAdHYO-26" edge="1">
          <mxGeometry relative="1" as="geometry">
            <Array as="points">
              <mxPoint x="-1440" y="65" />
              <mxPoint x="-188" y="65" />
              <mxPoint x="-188" y="40" />
            </Array>
            <mxPoint x="-960" y="80" as="sourcePoint" />
            <mxPoint x="-170" y="40" as="targetPoint" />
          </mxGeometry>
        </mxCell>
        <mxCell id="cCLrs_CAnp8vthAAdHYO-163" style="edgeStyle=orthogonalEdgeStyle;rounded=0;orthogonalLoop=1;jettySize=auto;html=1;entryX=0.5;entryY=0;entryDx=0;entryDy=0;strokeWidth=5;fillColor=#f8cecc;strokeColor=#b85450;" parent="1" source="cCLrs_CAnp8vthAAdHYO-23" target="cCLrs_CAnp8vthAAdHYO-25" edge="1">
          <mxGeometry relative="1" as="geometry" />
        </mxCell>
        <mxCell id="cCLrs_CAnp8vthAAdHYO-23" value="Monitorability" style="swimlane;whiteSpace=wrap;html=1;fillColor=#A89078;strokeColor=#6D1F00;fontColor=#ffffff;" parent="1" vertex="1">
          <mxGeometry x="-1670" y="-80" width="230" height="190" as="geometry" />
        </mxCell>
        <mxCell id="cCLrs_CAnp8vthAAdHYO-25" value="Testability" style="swimlane;whiteSpace=wrap;html=1;fillColor=#f8cecc;strokeColor=#b85450;" parent="1" vertex="1">
          <mxGeometry x="-1660" y="240" width="210" height="120" as="geometry" />
        </mxCell>
        <mxCell id="cCLrs_CAnp8vthAAdHYO-24" value="Security" style="swimlane;whiteSpace=wrap;html=1;fillColor=#fff2cc;strokeColor=#d6b656;" parent="1" vertex="1">
          <mxGeometry x="-120" y="800" width="230" height="270" as="geometry" />
        </mxCell>
        <mxCell id="cCLrs_CAnp8vthAAdHYO-80" value="Security Monitor" style="swimlane;whiteSpace=wrap;html=1;startSize=35;fillColor=#fff2cc;strokeColor=#d6b656;" parent="cCLrs_CAnp8vthAAdHYO-24" vertex="1">
          <mxGeometry x="10" y="50" width="200" height="200" as="geometry" />
        </mxCell>
        <mxCell id="cCLrs_CAnp8vthAAdHYO-81" value="Local Monitoring" style="rounded=1;whiteSpace=wrap;html=1;fillColor=#fff2cc;strokeColor=#d6b656;" parent="cCLrs_CAnp8vthAAdHYO-80" vertex="1">
          <mxGeometry x="30" y="45" width="120" height="40" as="geometry" />
        </mxCell>
        <mxCell id="cCLrs_CAnp8vthAAdHYO-82" value="External Monitoring" style="rounded=1;whiteSpace=wrap;html=1;fillColor=#fff2cc;strokeColor=#d6b656;" parent="cCLrs_CAnp8vthAAdHYO-80" vertex="1">
          <mxGeometry x="30" y="110" width="120" height="40" as="geometry" />
        </mxCell>
        <mxCell id="cCLrs_CAnp8vthAAdHYO-128" style="edgeStyle=orthogonalEdgeStyle;rounded=0;orthogonalLoop=1;jettySize=auto;html=1;exitX=0.5;exitY=0;exitDx=0;exitDy=0;entryX=0.5;entryY=0;entryDx=0;entryDy=0;fillColor=#d5e8d4;strokeColor=#82b366;strokeWidth=5;" parent="1" source="cCLrs_CAnp8vthAAdHYO-12" target="cCLrs_CAnp8vthAAdHYO-26" edge="1">
          <mxGeometry relative="1" as="geometry">
            <Array as="points">
              <mxPoint x="-720" y="-450" />
              <mxPoint y="-450" />
            </Array>
          </mxGeometry>
        </mxCell>
        <mxCell id="cCLrs_CAnp8vthAAdHYO-135" style="edgeStyle=orthogonalEdgeStyle;rounded=0;orthogonalLoop=1;jettySize=auto;html=1;exitX=0.5;exitY=0;exitDx=0;exitDy=0;entryX=0.5;entryY=1;entryDx=0;entryDy=0;fillColor=#d5e8d4;strokeColor=#82b366;strokeWidth=5;" parent="1" source="cCLrs_CAnp8vthAAdHYO-43" target="cCLrs_CAnp8vthAAdHYO-28" edge="1">
          <mxGeometry relative="1" as="geometry" />
        </mxCell>
        <mxCell id="cCLrs_CAnp8vthAAdHYO-136" style="edgeStyle=orthogonalEdgeStyle;rounded=0;orthogonalLoop=1;jettySize=auto;html=1;exitX=0.5;exitY=0;exitDx=0;exitDy=0;entryX=0.5;entryY=1;entryDx=0;entryDy=0;fillColor=#d5e8d4;strokeColor=#82b366;strokeWidth=5;" parent="1" source="cCLrs_CAnp8vthAAdHYO-47" target="cCLrs_CAnp8vthAAdHYO-28" edge="1">
          <mxGeometry relative="1" as="geometry" />
        </mxCell>
        <mxCell id="cCLrs_CAnp8vthAAdHYO-139" style="edgeStyle=orthogonalEdgeStyle;rounded=0;orthogonalLoop=1;jettySize=auto;html=1;exitX=0.5;exitY=1;exitDx=0;exitDy=0;entryX=0.5;entryY=1;entryDx=0;entryDy=0;fillColor=#e1d5e7;strokeColor=#9673a6;strokeWidth=5;" parent="1" source="cCLrs_CAnp8vthAAdHYO-29" target="cCLrs_CAnp8vthAAdHYO-12" edge="1">
          <mxGeometry relative="1" as="geometry">
            <Array as="points">
              <mxPoint x="215" y="470" />
              <mxPoint x="-720" y="470" />
            </Array>
          </mxGeometry>
        </mxCell>
        <mxCell id="cCLrs_CAnp8vthAAdHYO-152" style="edgeStyle=orthogonalEdgeStyle;rounded=0;orthogonalLoop=1;jettySize=auto;html=1;entryX=0.5;entryY=0;entryDx=0;entryDy=0;fillColor=#fff2cc;strokeColor=#d6b656;strokeWidth=5;exitX=0.75;exitY=0;exitDx=0;exitDy=0;" parent="1" target="cCLrs_CAnp8vthAAdHYO-80" edge="1" source="cCLrs_CAnp8vthAAdHYO-43">
          <mxGeometry relative="1" as="geometry">
            <mxPoint x="-1170" y="850" as="sourcePoint" />
            <Array as="points">
              <mxPoint x="-990" y="980" />
              <mxPoint x="-990" y="750" />
              <mxPoint x="-10" y="750" />
            </Array>
          </mxGeometry>
        </mxCell>
        <mxCell id="cCLrs_CAnp8vthAAdHYO-153" style="edgeStyle=orthogonalEdgeStyle;rounded=0;orthogonalLoop=1;jettySize=auto;html=1;exitX=1;exitY=0.5;exitDx=0;exitDy=0;entryX=0;entryY=0.5;entryDx=0;entryDy=0;fillColor=#fff2cc;strokeColor=#d6b656;strokeWidth=5;" parent="1" source="cCLrs_CAnp8vthAAdHYO-47" target="cCLrs_CAnp8vthAAdHYO-80" edge="1">
          <mxGeometry relative="1" as="geometry" />
        </mxCell>
        <mxCell id="cCLrs_CAnp8vthAAdHYO-134" style="edgeStyle=orthogonalEdgeStyle;rounded=0;orthogonalLoop=1;jettySize=auto;html=1;exitX=0.5;exitY=0;exitDx=0;exitDy=0;fillColor=#e1d5e7;strokeColor=#9673a6;strokeWidth=5;entryX=1;entryY=0.5;entryDx=0;entryDy=0;" parent="1" source="cCLrs_CAnp8vthAAdHYO-27" target="cCLrs_CAnp8vthAAdHYO-12" edge="1">
          <mxGeometry relative="1" as="geometry">
            <mxPoint x="-470" y="-100" as="targetPoint" />
          </mxGeometry>
        </mxCell>
        <mxCell id="Ecc7xZgjDvvamIYXh4mF-3" value="" style="shape=flexArrow;endArrow=classic;startArrow=classic;html=1;rounded=0;entryX=0.5;entryY=1;entryDx=0;entryDy=0;exitX=0;exitY=0;exitDx=0;exitDy=0;fillColor=#FF0000;strokeColor=#b85450;" edge="1" parent="1" source="cCLrs_CAnp8vthAAdHYO-21" target="cCLrs_CAnp8vthAAdHYO-12">
          <mxGeometry width="100" height="100" relative="1" as="geometry">
            <mxPoint x="-860" y="250" as="sourcePoint" />
            <mxPoint x="-760" y="150" as="targetPoint" />
          </mxGeometry>
        </mxCell>
        <mxCell id="Ecc7xZgjDvvamIYXh4mF-4" value="" style="shape=flexArrow;endArrow=classic;startArrow=classic;html=1;rounded=0;entryX=1;entryY=0;entryDx=0;entryDy=0;exitX=1;exitY=1;exitDx=0;exitDy=0;fillColor=#FF0000;strokeColor=#b85450;" edge="1" parent="1" source="cCLrs_CAnp8vthAAdHYO-28" target="cCLrs_CAnp8vthAAdHYO-24">
          <mxGeometry width="100" height="100" relative="1" as="geometry">
            <mxPoint x="-190" y="380" as="sourcePoint" />
            <mxPoint x="-770" y="260" as="targetPoint" />
          </mxGeometry>
        </mxCell>
      </root>
    </mxGraphModel>
  </diagram>
</mxfile>
